<svg width="13" height="16" viewBox="0 0 13 16" fill="none" xmlns="http://www.w3.org/2000/svg">
<path d="M6.74017 0.203125C3.55549 0.203125 0.408051 2.34063 0.408051 5.8C0.408051 8 1.63723 9.25 2.38218 9.25C2.68948 9.25 2.8664 8.3875 2.8664 8.14375C2.8664 7.85313 2.13076 7.23438 2.13076 6.025C2.13076 3.5125 4.03039 1.73125 6.48875 1.73125C8.60256 1.73125 10.167 2.94062 10.167 5.1625C10.167 6.82187 9.50581 9.93437 7.36407 9.93437C6.59118 9.93437 5.93003 9.37187 5.93003 8.56563C5.93003 7.38438 6.74948 6.24062 6.74948 5.02187C6.74948 2.95312 3.83484 3.32812 3.83484 5.82812C3.83484 6.35313 3.90003 6.93437 4.13283 7.4125C3.70448 9.26875 2.82915 12.0344 2.82915 13.9469C2.82915 14.5375 2.91296 15.1188 2.96883 15.7094C3.07437 15.8281 3.0216 15.8156 3.18301 15.7563C4.74741 13.6 4.69154 13.1781 5.39925 10.3562C5.78104 11.0875 6.7681 11.4812 7.55031 11.4812C10.8467 11.4812 12.3273 8.24688 12.3273 5.33125C12.3273 2.22813 9.66412 0.203125 6.74017 0.203125Z" fill="black"/>
</svg>
