<svg width="16" height="15" viewBox="0 0 16 15" fill="none" xmlns="http://www.w3.org/2000/svg">
<path d="M8.1368 3.68159C6.02166 3.68159 4.31558 5.38491 4.31558 7.49663C4.31558 9.60835 6.02166 11.3117 8.1368 11.3117C10.2519 11.3117 11.958 9.60835 11.958 7.49663C11.958 5.38491 10.2519 3.68159 8.1368 3.68159ZM8.1368 9.9769C6.76994 9.9769 5.65251 8.8646 5.65251 7.49663C5.65251 6.12866 6.76661 5.01636 8.1368 5.01636C9.50698 5.01636 10.6211 6.12866 10.6211 7.49663C10.6211 8.8646 9.50366 9.9769 8.1368 9.9769ZM13.0056 3.52554C13.0056 4.02026 12.6065 4.41538 12.1143 4.41538C11.6188 4.41538 11.223 4.01694 11.223 3.52554C11.223 3.03413 11.6221 2.63569 12.1143 2.63569C12.6065 2.63569 13.0056 3.03413 13.0056 3.52554ZM15.5365 4.42866C15.4799 3.23667 15.2072 2.18081 14.3326 1.31089C13.4612 0.440967 12.4037 0.168701 11.2097 0.108936C9.97923 0.039209 6.29104 0.039209 5.06053 0.108936C3.86994 0.165381 2.81236 0.437646 1.93771 1.30757C1.06305 2.17749 0.793669 3.23335 0.733807 4.42534C0.663967 5.65386 0.663967 9.33608 0.733807 10.5646C0.790343 11.7566 1.06305 12.8124 1.93771 13.6824C2.81236 14.5523 3.86661 14.8246 5.06053 14.8843C6.29104 14.9541 9.97923 14.9541 11.2097 14.8843C12.4037 14.8279 13.4612 14.5556 14.3326 13.6824C15.2039 12.8124 15.4766 11.7566 15.5365 10.5646C15.6063 9.33608 15.6063 5.65718 15.5365 4.42866ZM13.9468 11.8828C13.6874 12.5335 13.1852 13.0349 12.53 13.2972C11.549 13.6857 9.22097 13.596 8.1368 13.596C7.05262 13.596 4.72131 13.6824 3.74356 13.2972C3.09172 13.0382 2.58954 12.5369 2.32681 11.8828C1.93771 10.9033 2.0275 8.57905 2.0275 7.49663C2.0275 6.41421 1.94103 4.08667 2.32681 3.1105C2.58622 2.45972 3.0884 1.95835 3.74356 1.69604C4.72464 1.30757 7.05262 1.39722 8.1368 1.39722C9.22097 1.39722 11.5523 1.31089 12.53 1.69604C13.1819 1.95503 13.6841 2.4564 13.9468 3.1105C14.3359 4.08999 14.2461 6.41421 14.2461 7.49663C14.2461 8.57905 14.3359 10.9066 13.9468 11.8828Z" fill="black"/>
</svg>
