<svg width="17" height="14" viewBox="0 0 17 14" fill="none" xmlns="http://www.w3.org/2000/svg">
<path d="M14.4181 3.741C14.4281 3.88313 14.4281 4.02529 14.4281 4.16741C14.4281 8.50241 11.1509 13.4973 5.16096 13.4973C3.31558 13.4973 1.60132 12.9593 0.159302 12.0253C0.421495 12.0557 0.673569 12.0659 0.94585 12.0659C2.46851 12.0659 3.8702 11.5481 4.98953 10.6649C3.5576 10.6344 2.3576 9.69025 1.94415 8.39075C2.14585 8.42119 2.34751 8.4415 2.5593 8.4415C2.85172 8.4415 3.14418 8.40088 3.41643 8.32985C1.92401 8.02525 0.80465 6.70547 0.80465 5.11157V5.07097C1.23825 5.31463 1.74249 5.46691 2.2769 5.48719C1.39959 4.89835 0.824826 3.89329 0.824826 2.75622C0.824826 2.1471 0.98614 1.58872 1.26851 1.10141C2.87187 3.09125 5.28195 4.39072 7.98443 4.53288C7.93403 4.28922 7.90376 4.03544 7.90376 3.78163C7.90376 1.9745 9.35586 0.502441 11.1609 0.502441C12.0987 0.502441 12.9457 0.898379 13.5407 1.53797C14.2768 1.39585 14.9827 1.12172 15.6079 0.746098C15.3659 1.50754 14.8516 2.14713 14.176 2.55319C14.8315 2.48216 15.4668 2.29938 16.0516 2.0456C15.608 2.69532 15.0533 3.27397 14.4181 3.741Z" fill="black"/>
</svg>
